TITLE ""
FILE "P1Q_t_1168-1177.mp3" MP3
  TRACK 01 AUDIO
    TITLE "P1Q_t_1168-1177_01"
    INDEX 01 00:00:00
  TRACK 02 AUDIO
    TITLE "P1Q_t_1168-1177_02"
    INDEX 01 00:01:22
  TRACK 03 AUDIO
    TITLE "P1Q_t_1168-1177_03"
    INDEX 01 00:01:45
  TRACK 04 AUDIO
    TITLE "P1Q_t_1168-1177_04"
    INDEX 01 00:06:09
  TRACK 05 AUDIO
    TITLE "P1Q_t_1168-1177_05"
    INDEX 01 00:06:31
  TRACK 06 AUDIO
    TITLE "P1Q_t_1168-1177_06"
    INDEX 01 00:10:38
  TRACK 07 AUDIO
    TITLE "P1Q_t_1168-1177_07"
    INDEX 01 00:11:10
  TRACK 08 AUDIO
    TITLE "P1Q_t_1168-1177_08"
    INDEX 01 00:12:45
  TRACK 09 AUDIO
    TITLE "P1Q_t_1168-1177_09"
    INDEX 01 00:12:66
  TRACK 10 AUDIO
    TITLE "P1Q_t_1168-1177_10"
    INDEX 01 00:16:58
  TRACK 11 AUDIO
    TITLE "P1Q_t_1168-1177_11"
    INDEX 01 00:17:05
  TRACK 12 AUDIO
    TITLE "P1Q_t_1168-1177_12"
    INDEX 01 00:20:66
  TRACK 13 AUDIO
    TITLE "P1Q_t_1168-1177_13"
    INDEX 01 00:21:36
  TRACK 14 AUDIO
    TITLE "P1Q_t_1168-1177_14"
    INDEX 01 00:22:53
  TRACK 15 AUDIO
    TITLE "P1Q_t_1168-1177_15"
    INDEX 01 00:23:00
  TRACK 16 AUDIO
    TITLE "P1Q_t_1168-1177_16"
    INDEX 01 00:25:65
  TRACK 17 AUDIO
    TITLE "P1Q_t_1168-1177_17"
    INDEX 01 00:26:08
  TRACK 18 AUDIO
    TITLE "P1Q_t_1168-1177_18"
    INDEX 01 00:30:64
  TRACK 19 AUDIO
    TITLE "P1Q_t_1168-1177_19"
    INDEX 01 00:31:36
  TRACK 20 AUDIO
    TITLE "P1Q_t_1168-1177_20"
    INDEX 01 00:32:59
  TRACK 21 AUDIO
    TITLE "P1Q_t_1168-1177_21"
    INDEX 01 00:33:06
  TRACK 22 AUDIO
    TITLE "P1Q_t_1168-1177_22"
    INDEX 01 00:36:20
  TRACK 23 AUDIO
    TITLE "P1Q_t_1168-1177_23"
    INDEX 01 00:36:39
  TRACK 24 AUDIO
    TITLE "P1Q_t_1168-1177_24"
    INDEX 01 00:41:48
  TRACK 25 AUDIO
    TITLE "P1Q_t_1168-1177_25"
    INDEX 01 00:42:19
  TRACK 26 AUDIO
    TITLE "P1Q_t_1168-1177_26"
    INDEX 01 00:43:53
  TRACK 27 AUDIO
    TITLE "P1Q_t_1168-1177_27"
    INDEX 01 00:44:00
  TRACK 28 AUDIO
    TITLE "P1Q_t_1168-1177_28"
    INDEX 01 00:45:33
  TRACK 29 AUDIO
    TITLE "P1Q_t_1168-1177_29"
    INDEX 01 00:45:52
  TRACK 30 AUDIO
    TITLE "P1Q_t_1168-1177_30"
    INDEX 01 00:49:73
  TRACK 31 AUDIO
    TITLE "P1Q_t_1168-1177_31"
    INDEX 01 00:50:42
  TRACK 32 AUDIO
    TITLE "P1Q_t_1168-1177_32"
    INDEX 01 00:51:59
  TRACK 33 AUDIO
    TITLE "P1Q_t_1168-1177_33"
    INDEX 01 00:52:05
  TRACK 34 AUDIO
    TITLE "P1Q_t_1168-1177_34"
    INDEX 01 00:55:72
  TRACK 35 AUDIO
    TITLE "P1Q_t_1168-1177_35"
    INDEX 01 00:56:17
  TRACK 36 AUDIO
    TITLE "P1Q_t_1168-1177_36"
    INDEX 01 01:01:26
  TRACK 37 AUDIO
    TITLE "P1Q_t_1168-1177_37"
    INDEX 01 01:02:00
  TRACK 38 AUDIO
    TITLE "P1Q_t_1168-1177_38"
    INDEX 01 01:03:30
  TRACK 39 AUDIO
    TITLE "P1Q_t_1168-1177_39"
    INDEX 01 01:03:50
  TRACK 40 AUDIO
    TITLE "P1Q_t_1168-1177_40"
    INDEX 01 01:06:46
  TRACK 41 AUDIO
    TITLE "P1Q_t_1168-1177_41"
    INDEX 01 01:06:66
  TRACK 42 AUDIO
    TITLE "P1Q_t_1168-1177_42"
    INDEX 01 01:11:69
  TRACK 43 AUDIO
    TITLE "P1Q_t_1168-1177_43"
    INDEX 01 01:12:41
  TRACK 44 AUDIO
    TITLE "P1Q_t_1168-1177_44"
    INDEX 01 01:13:62
  TRACK 45 AUDIO
    TITLE "P1Q_t_1168-1177_45"
    INDEX 01 01:14:09
  TRACK 46 AUDIO
    TITLE "P1Q_t_1168-1177_46"
    INDEX 01 01:17:25
  TRACK 47 AUDIO
    TITLE "P1Q_t_1168-1177_47"
    INDEX 01 01:17:46
  TRACK 48 AUDIO
    TITLE "P1Q_t_1168-1177_48"
    INDEX 01 01:22:57
  TRACK 49 AUDIO
    TITLE "P1Q_t_1168-1177_49"
    INDEX 01 01:23:29
  TRACK 50 AUDIO
    TITLE "P1Q_t_1168-1177_50"
    INDEX 01 01:24:44
  TRACK 51 AUDIO
    TITLE "P1Q_t_1168-1177_51"
    INDEX 01 01:24:64
  TRACK 52 AUDIO
    TITLE "P1Q_t_1168-1177_52"
    INDEX 01 01:26:10
  TRACK 53 AUDIO
    TITLE "P1Q_t_1168-1177_53"
    INDEX 01 01:26:28
  TRACK 54 AUDIO
    TITLE "P1Q_t_1168-1177_54"
    INDEX 01 01:30:10
  TRACK 55 AUDIO
    TITLE "P1Q_t_1168-1177_55"
    INDEX 01 01:30:55
  TRACK 56 AUDIO
    TITLE "P1Q_t_1168-1177_56"
    INDEX 01 01:32:16
  TRACK 57 AUDIO
    TITLE "P1Q_t_1168-1177_57"
    INDEX 01 01:32:40
  TRACK 58 AUDIO
    TITLE "P1Q_t_1168-1177_58"
    INDEX 01 01:35:03
  TRACK 59 AUDIO
    TITLE "P1Q_t_1168-1177_59"
    INDEX 01 01:35:21
  TRACK 60 AUDIO
    TITLE "P1Q_t_1168-1177_60"
    INDEX 01 01:39:46
